<svg width="220" height="220" viewBox="0 0 220 220" fill="none" xmlns="http://www.w3.org/2000/svg">
<rect x="-1.52588e-05" y="-0.000244141" width="220" height="220" rx="16" fill="#C8E6F8"/>
<mask id="mask0_1_8" style="mask-type:alpha" maskUnits="userSpaceOnUse" x="0" y="-1" width="220" height="221">
<rect x="-1.52588e-05" y="-0.000244141" width="220" height="220" rx="16" fill="#C8E6F8"/>
</mask>
<g mask="url(#mask0_1_8)">
<rect x="1.48828" y="221.085" width="358.64" height="217.895" transform="rotate(-45 1.48828 221.085)" fill="#98C4DC"/>
</g>
<path d="M153.706 121.34L120.621 112.47L143.004 90.0861C143.713 89.4019 144.278 88.5835 144.666 87.6787C145.055 86.7738 145.26 85.8006 145.268 84.8158C145.277 83.831 145.089 82.8544 144.716 81.9429C144.343 81.0315 143.792 80.2034 143.096 79.507C142.4 78.8106 141.572 78.2599 140.66 77.887C139.749 77.5141 138.772 77.3264 137.787 77.335C136.802 77.3436 135.829 77.5481 134.924 77.9369C134.02 78.3256 133.201 78.8906 132.517 79.5989L125.864 86.2517L117.001 53.1585L122.022 48.1374C129.006 41.328 138.391 37.544 148.144 37.6051C157.898 37.6662 167.234 41.5675 174.132 48.4639C181.029 55.3604 184.932 64.6966 184.994 74.4501C185.057 84.2036 181.274 93.589 174.466 100.573L153.706 121.34ZM141.595 133.451L113.664 161.382L74.222 158.868L108.509 124.581L141.595 133.451ZM64.3356 147.78L74.8228 158.268L48.6048 184.485C47.925 185.21 47.1065 185.791 46.1978 186.194C45.2891 186.596 44.3088 186.812 43.3152 186.828C42.3215 186.844 41.3347 186.66 40.4134 186.288C39.4922 185.915 38.6552 185.361 37.9522 184.658C37.2493 183.956 36.6946 183.119 36.3213 182.198C35.948 181.277 35.7635 180.291 35.779 179.297C35.7944 178.303 36.0094 177.323 36.4111 176.414C36.8129 175.505 37.3932 174.686 38.1177 174.006L63.7052 148.418L61.2873 108.88L104.89 65.2774L113.753 98.3705L64.3356 147.788V147.78Z" fill="#212E35"/>
</svg>
